<mxfile host="app.diagrams.net" modified="2023-03-27T02:37:54.629Z" agent="Mozilla/5.0 (Windows NT 10.0; Win64; x64) AppleWebKit/537.36 (KHTML, like Gecko) Chrome/111.0.0.0 Safari/537.36" etag="mLe5vMY4K8pA3SGx5yZc" version="21.1.0" type="github">
  <diagram name="Page-1" id="o6Rv-cbxd2NCU8qQrmzL">
    <mxGraphModel dx="936" dy="502" grid="0" gridSize="10" guides="1" tooltips="1" connect="1" arrows="1" fold="1" page="1" pageScale="1" pageWidth="827" pageHeight="1169" math="0" shadow="0">
      <root>
        <mxCell id="0" />
        <mxCell id="1" parent="0" />
        <mxCell id="4kUaeSOFEPkbfbRjqkmr-5" style="edgeStyle=orthogonalEdgeStyle;rounded=0;orthogonalLoop=1;jettySize=auto;html=1;exitX=0.5;exitY=1;exitDx=0;exitDy=0;endArrow=open;endFill=0;" edge="1" parent="1" source="4kUaeSOFEPkbfbRjqkmr-1" target="4kUaeSOFEPkbfbRjqkmr-3">
          <mxGeometry relative="1" as="geometry" />
        </mxCell>
        <mxCell id="4kUaeSOFEPkbfbRjqkmr-6" style="rounded=0;orthogonalLoop=1;jettySize=auto;html=1;exitX=0.25;exitY=1;exitDx=0;exitDy=0;endArrow=open;endFill=0;entryX=0.5;entryY=0;entryDx=0;entryDy=0;" edge="1" parent="1" source="4kUaeSOFEPkbfbRjqkmr-1" target="4kUaeSOFEPkbfbRjqkmr-2">
          <mxGeometry relative="1" as="geometry" />
        </mxCell>
        <mxCell id="4kUaeSOFEPkbfbRjqkmr-7" style="rounded=0;orthogonalLoop=1;jettySize=auto;html=1;exitX=0.75;exitY=1;exitDx=0;exitDy=0;entryX=0.5;entryY=0;entryDx=0;entryDy=0;endArrow=open;endFill=0;" edge="1" parent="1" source="4kUaeSOFEPkbfbRjqkmr-1" target="4kUaeSOFEPkbfbRjqkmr-4">
          <mxGeometry relative="1" as="geometry" />
        </mxCell>
        <mxCell id="4kUaeSOFEPkbfbRjqkmr-1" value="" style="rounded=0;whiteSpace=wrap;html=1;" vertex="1" parent="1">
          <mxGeometry x="324" y="72" width="120" height="60" as="geometry" />
        </mxCell>
        <mxCell id="4kUaeSOFEPkbfbRjqkmr-13" style="rounded=0;orthogonalLoop=1;jettySize=auto;html=1;exitX=0.25;exitY=1;exitDx=0;exitDy=0;entryX=0.5;entryY=0;entryDx=0;entryDy=0;endArrow=open;endFill=0;" edge="1" parent="1" source="4kUaeSOFEPkbfbRjqkmr-2" target="4kUaeSOFEPkbfbRjqkmr-8">
          <mxGeometry relative="1" as="geometry" />
        </mxCell>
        <mxCell id="4kUaeSOFEPkbfbRjqkmr-14" style="rounded=0;orthogonalLoop=1;jettySize=auto;html=1;exitX=0.75;exitY=1;exitDx=0;exitDy=0;endArrow=open;endFill=0;" edge="1" parent="1" source="4kUaeSOFEPkbfbRjqkmr-2" target="4kUaeSOFEPkbfbRjqkmr-9">
          <mxGeometry relative="1" as="geometry" />
        </mxCell>
        <mxCell id="4kUaeSOFEPkbfbRjqkmr-2" value="" style="rounded=0;whiteSpace=wrap;html=1;" vertex="1" parent="1">
          <mxGeometry x="92" y="199" width="120" height="60" as="geometry" />
        </mxCell>
        <mxCell id="4kUaeSOFEPkbfbRjqkmr-15" style="rounded=0;orthogonalLoop=1;jettySize=auto;html=1;endArrow=open;endFill=0;" edge="1" parent="1" source="4kUaeSOFEPkbfbRjqkmr-3" target="4kUaeSOFEPkbfbRjqkmr-10">
          <mxGeometry relative="1" as="geometry" />
        </mxCell>
        <mxCell id="4kUaeSOFEPkbfbRjqkmr-3" value="" style="rounded=0;whiteSpace=wrap;html=1;" vertex="1" parent="1">
          <mxGeometry x="324" y="199" width="120" height="60" as="geometry" />
        </mxCell>
        <mxCell id="4kUaeSOFEPkbfbRjqkmr-16" style="rounded=0;orthogonalLoop=1;jettySize=auto;html=1;exitX=0.25;exitY=1;exitDx=0;exitDy=0;endArrow=open;endFill=0;" edge="1" parent="1" source="4kUaeSOFEPkbfbRjqkmr-4" target="4kUaeSOFEPkbfbRjqkmr-11">
          <mxGeometry relative="1" as="geometry" />
        </mxCell>
        <mxCell id="4kUaeSOFEPkbfbRjqkmr-17" style="rounded=0;orthogonalLoop=1;jettySize=auto;html=1;exitX=0.75;exitY=1;exitDx=0;exitDy=0;endArrow=open;endFill=0;fillColor=#d5e8d4;strokeColor=#000000;" edge="1" parent="1" source="4kUaeSOFEPkbfbRjqkmr-4" target="4kUaeSOFEPkbfbRjqkmr-12">
          <mxGeometry relative="1" as="geometry" />
        </mxCell>
        <mxCell id="4kUaeSOFEPkbfbRjqkmr-4" value="" style="rounded=0;whiteSpace=wrap;html=1;" vertex="1" parent="1">
          <mxGeometry x="473" y="199" width="120" height="60" as="geometry" />
        </mxCell>
        <mxCell id="4kUaeSOFEPkbfbRjqkmr-8" value="" style="rounded=0;whiteSpace=wrap;html=1;" vertex="1" parent="1">
          <mxGeometry x="15" y="347" width="120" height="60" as="geometry" />
        </mxCell>
        <mxCell id="4kUaeSOFEPkbfbRjqkmr-9" value="" style="rounded=0;whiteSpace=wrap;html=1;" vertex="1" parent="1">
          <mxGeometry x="149" y="347" width="120" height="60" as="geometry" />
        </mxCell>
        <mxCell id="4kUaeSOFEPkbfbRjqkmr-10" value="" style="rounded=0;whiteSpace=wrap;html=1;" vertex="1" parent="1">
          <mxGeometry x="278" y="347" width="120" height="60" as="geometry" />
        </mxCell>
        <mxCell id="4kUaeSOFEPkbfbRjqkmr-11" value="" style="rounded=0;whiteSpace=wrap;html=1;" vertex="1" parent="1">
          <mxGeometry x="407" y="347" width="120" height="60" as="geometry" />
        </mxCell>
        <mxCell id="4kUaeSOFEPkbfbRjqkmr-12" value="" style="rounded=0;whiteSpace=wrap;html=1;" vertex="1" parent="1">
          <mxGeometry x="536" y="347" width="120" height="60" as="geometry" />
        </mxCell>
      </root>
    </mxGraphModel>
  </diagram>
</mxfile>
